<svg width="60" height="60" viewBox="0 0 60 60" fill="none" xmlns="http://www.w3.org/2000/svg">
<g clip-path="url(#clip0_2_1155)">
<path d="M58.8862 26.7792C57.8807 25.4756 56.3611 24.7278 54.7171 24.7278H49.2904C49.3128 24.1448 49.324 23.5589 49.324 22.9705C49.324 21.9999 48.5372 21.2131 47.5667 21.2131H1.75738C0.786833 21.213 3.5955e-05 21.9999 3.5955e-05 22.9705C3.5955e-05 33.421 3.55351 43.0797 9.49504 49.3313H1.75738C1.14824 49.3313 0.582575 49.6467 0.262419 50.1648C-0.0577375 50.6829 -0.0868 51.3299 0.185427 51.8745C2.65129 56.8061 7.73394 59.9927 13.1344 59.9927H36.1925C41.5911 59.9927 46.6725 56.8061 49.1384 51.8745C49.4107 51.3297 49.3817 50.6829 49.0614 50.1648C48.7412 49.6467 48.1756 49.3313 47.5664 49.3313H39.8288C40.8852 48.2198 41.8662 47.0007 42.7651 45.6884C46.511 45.2574 50.1798 43.7369 53.1821 41.3554C56.4613 38.7541 58.8189 35.2223 59.8205 31.4107C60.2466 29.7896 59.9059 28.1015 58.8862 26.7792ZM33.5076 34.2426V38.7869H29.9928V34.2426L31.7501 32.4853L33.5076 34.2426ZM44.2493 52.8226C42.1845 55.0895 39.2539 56.4779 36.1927 56.4779H13.1345C10.0718 56.4779 7.14015 55.0895 5.07496 52.8226H44.2493ZM34.5794 49.3312H14.7447C8.17339 44.3765 3.97785 35.1152 3.55082 24.7278H29.9928V29.2721L26.9928 32.2721C26.6632 32.6017 26.478 33.0486 26.478 33.5148V40.5443C26.478 41.5148 27.2648 42.3016 28.2353 42.3016H35.2648C36.2353 42.3016 37.0221 41.5148 37.0221 40.5443V33.5148C37.0221 33.0487 36.8369 32.6018 36.5073 32.2721L33.5073 29.2721V24.7044H45.773C45.3932 33.9485 41.8393 43.8575 34.5794 49.3312ZM56.4212 30.5172C55.045 35.7548 50.5541 40.0397 45.1374 41.6332C47.1166 37.6465 48.4527 33.0868 49.0183 28.2426H54.7169C55.4643 28.2426 55.9061 28.6706 56.1027 28.9257C56.4521 29.3784 56.5681 29.9585 56.4212 30.5172Z" fill="#5AB963"/>
<path d="M37.2577 14.5145C37.0101 14.2928 36.0852 13.2687 36.0852 12.309C36.0852 11.3886 36.9594 10.3777 37.2576 10.1036C38.7525 8.76493 39.5759 7.05164 39.5759 5.27953C39.5759 3.50742 38.7526 1.79414 37.2576 0.455511C36.5346 -0.19195 35.4236 -0.130661 34.776 0.592386C34.1285 1.31555 34.1898 2.42649 34.9129 3.07395C35.6639 3.7466 36.0611 4.50926 36.0611 5.27942C36.0611 6.04957 35.6642 6.81246 34.913 7.485C34.6731 7.69981 32.5705 9.65907 32.5705 12.309C32.5705 14.959 34.6732 16.9182 34.913 17.133C35.6364 17.7807 36.7473 17.719 37.3946 16.9961C38.0419 16.273 37.9807 15.162 37.2577 14.5145ZM26.7134 14.5145C26.4658 14.2928 25.5409 13.2687 25.5409 12.309C25.5409 11.3886 26.4151 10.3777 26.7133 10.1036C28.2082 8.76493 29.0316 7.05164 29.0316 5.27953C29.0316 3.50742 28.2083 1.79414 26.7133 0.455511C25.9902 -0.19195 24.8793 -0.130661 24.2317 0.592386C23.5842 1.31555 23.6455 2.42649 24.3686 3.07395C25.1196 3.7466 25.5168 4.50926 25.5168 5.27942C25.5168 6.04957 25.1199 6.81246 24.3687 7.485C24.1289 7.69981 22.0262 9.65907 22.0262 12.309C22.0262 14.959 24.1289 16.9182 24.3687 17.133C25.0921 17.7807 26.203 17.719 26.8503 16.9961C27.4976 16.273 27.4363 15.162 26.7134 14.5145ZM16.1691 14.5145C15.9215 14.2928 14.9966 13.2687 14.9966 12.309C14.9966 11.3886 15.8708 10.3777 16.169 10.1036C17.6639 8.76493 18.4873 7.05164 18.4873 5.27953C18.4873 3.50742 17.664 1.79414 16.169 0.455511C15.4459 -0.19195 14.3349 -0.130661 13.6874 0.592386C13.0399 1.31555 13.1012 2.42649 13.8243 3.07395C14.5753 3.7466 14.9725 4.50926 14.9725 5.27942C14.9725 6.04957 14.5756 6.81246 13.8244 7.485C13.5845 7.69981 11.4819 9.65907 11.4819 12.309C11.4819 14.959 13.5846 16.9182 13.8244 17.133C14.5477 17.7807 15.6587 17.719 16.306 16.9961C16.9533 16.273 16.892 15.162 16.1691 14.5145Z" fill="black"/>
</g>
<defs>
<clipPath id="clip0_2_1155">
<rect width="60" height="60" fill="white"/>
</clipPath>
</defs>
</svg>
