<svg width="60" height="53" viewBox="0 0 60 53" fill="none" xmlns="http://www.w3.org/2000/svg">
<g clip-path="url(#clip0_2_1163)">
<path d="M58.2009 31.196C59.9061 29.1103 60.4027 26.6099 59.6751 23.7621C58.9692 20.9991 56.906 18.7744 54.1564 17.8112C51.3546 16.8294 48.2753 17.2893 45.9201 19.0413C45.5525 19.3148 44.3201 20.2001 43.8778 20.3755C43.6488 20.4663 43.4501 20.6001 43.2865 20.7629C34.2381 25.9312 22.6839 25.3579 14.1925 19.0412C13.7745 18.7303 13.333 18.4609 12.874 18.2322C12.8644 18.2269 12.8544 18.2224 12.8446 18.2174C10.711 17.1638 8.19955 17.0043 5.86635 17.8215C3.09616 18.792 1.02276 21.0128 0.320335 23.7619C-0.360641 26.4268 0.220023 29.1425 1.77826 31.2175C1.09647 32.1184 0.593148 33.1418 0.320335 34.2099C-0.412204 37.0768 0.11303 39.5938 1.88162 41.6911C3.6317 43.7664 6.23889 45.0291 8.21139 46.2217C14.776 50.1906 22.3299 52.2884 30.0563 52.2884C42.9175 52.2884 50.799 46.8882 55.747 43.8967C59.0647 41.8912 60.6433 37.9984 59.6753 34.2099C59.4001 33.1333 58.891 32.1021 58.2009 31.196ZM53.9193 40.9231L50.0736 43.2483C37.7266 50.713 22.3862 50.713 10.0392 43.2483C6.12147 40.8798 2.6076 39.4361 3.72416 35.0657C3.86034 34.533 4.09623 34.017 4.41358 33.5459C9.04061 36.2608 10.4408 37.1743 13.4653 38.4627L14.3222 40.5876C14.5968 41.2685 15.2561 41.6827 15.9529 41.6827C16.1699 41.6827 16.3905 41.6425 16.6044 41.5576C17.2692 41.2939 17.6806 40.6721 17.7059 40.0054C19.6869 40.6082 21.7129 41.0658 23.7685 41.3729L24.8564 44.0702C25.2161 44.9626 26.2375 45.3976 27.1386 45.0403C28.0388 44.6831 28.4767 43.6697 28.1165 42.7769L27.7124 41.7751C28.4914 41.8181 29.2729 41.8406 30.0563 41.8406C31.5127 41.8406 32.963 41.7659 34.4016 41.6183L35.3904 44.0701C35.7506 44.9635 36.7726 45.3972 37.6726 45.0403C38.5729 44.6831 39.0108 43.6697 38.6506 42.7769L37.9734 41.0976C40.4726 40.6238 42.9212 39.9257 45.2896 39.013L45.9246 40.5876C46.1991 41.2685 46.8583 41.6827 47.5552 41.6827C47.7722 41.6827 47.9928 41.6425 48.2065 41.5576C49.1069 41.2005 49.5448 40.1871 49.1846 39.2941L48.5076 37.6155C50.8056 36.5014 54.5747 34.2287 55.5753 33.5359C55.896 34.0095 56.134 34.5292 56.2712 35.0656C56.8678 37.3996 55.9446 39.6988 53.9193 40.9231ZM50.0731 32.7998C38.2791 39.9301 23.2488 40.5931 10.0188 32.788C5.38319 30.0681 5.87901 30.3893 5.27901 29.8881C3.81955 28.594 3.21264 26.6191 3.72405 24.6177C4.14358 22.976 5.35049 21.6959 7.03577 21.1056C8.24244 20.6828 9.52178 20.6852 10.6689 21.0811L14.3221 30.1395C14.5967 30.8204 15.256 31.2346 15.9528 31.2346C16.1698 31.2346 16.3904 31.1944 16.6042 31.1095C17.5045 30.7524 17.9424 29.739 17.5822 28.8461L15.6783 24.1254C17.7044 25.2272 19.8422 26.0844 22.0598 26.6882L24.8561 33.622C25.1307 34.3029 25.79 34.7171 26.4868 34.7171C26.7038 34.7171 26.9244 34.6769 27.1382 34.5921C28.0385 34.2349 28.4764 33.2215 28.1162 32.3285L26.1703 27.5036C27.4487 27.6658 28.7453 27.7491 30.056 27.7491C31.0344 27.7491 32.005 27.7023 32.9663 27.6117L35.3901 33.6218C35.6647 34.3027 36.324 34.7169 37.0208 34.7169C37.2378 34.7169 37.4583 34.6767 37.6721 34.5918C38.5724 34.2347 39.0104 33.2213 38.6501 32.3284L36.5259 27.0612C39.007 26.524 41.3994 25.6751 43.6617 24.5292L45.9242 30.1391C46.1988 30.82 46.8581 31.2342 47.5549 31.2342C47.7719 31.2342 47.9924 31.194 48.2063 31.1092C49.1065 30.752 49.5445 29.7386 49.1842 28.8456L46.723 22.7429C47.1637 22.4495 47.5987 22.145 48.0263 21.827C49.4399 20.7755 51.2942 20.5017 52.9864 21.0945C54.6507 21.6775 55.8479 22.9616 56.2709 24.6172C57.3875 28.9869 53.9822 30.4365 50.0731 32.7998Z" fill="#5AB963"/>
<path d="M22.2807 10.1698C23.947 9.06794 24.9418 7.22444 24.9418 5.23822C24.9418 3.25212 23.947 1.40851 22.2807 0.306781C21.4738 -0.22659 20.3838 -0.0105216 19.8461 0.789709C19.3082 1.58994 19.5261 2.67109 20.333 3.20446C21.0304 3.66554 21.4304 4.40696 21.4304 5.23822C21.4304 6.06948 21.0304 6.8109 20.333 7.2721C18.6667 8.37382 17.6719 10.2173 17.6719 12.2035C17.6719 14.1896 18.6667 16.0333 20.333 17.1351C21.1402 17.6687 22.2302 17.452 22.7677 16.6522C23.3055 15.8519 23.0876 14.7708 22.2807 14.2374C21.5834 13.7763 21.1833 13.0349 21.1833 12.2035C21.1833 11.3722 21.5834 10.6309 22.2807 10.1698ZM31.0593 10.1698C32.7255 9.06794 33.7203 7.22444 33.7203 5.23822C33.7203 3.25212 32.7255 1.40851 31.0593 0.306781C30.2523 -0.22659 29.1625 -0.0105216 28.6246 0.789709C28.0867 1.58994 28.3046 2.67109 29.1115 3.20446C29.8089 3.66554 30.2089 4.40696 30.2089 5.23822C30.2089 6.06948 29.8089 6.8109 29.1115 7.2721C27.4452 8.37382 26.4504 10.2173 26.4504 12.2035C26.4504 14.1896 27.4452 16.0333 29.1115 17.1351C29.9187 17.6687 31.0086 17.452 31.5462 16.6522C32.0842 15.8519 31.8661 14.7708 31.0593 14.2374C30.3619 13.7763 29.9618 13.0349 29.9618 12.2035C29.9618 11.3722 30.3619 10.6309 31.0593 10.1698ZM39.8377 10.1698C41.5039 9.06794 42.4988 7.22444 42.4988 5.23822C42.4988 3.25212 41.5039 1.40851 39.8377 0.306781C39.0308 -0.22659 37.9407 -0.0105216 37.403 0.789709C36.865 1.58994 37.083 2.67109 37.8899 3.20446C38.5873 3.66554 38.9873 4.40696 38.9873 5.23822C38.9873 6.06948 38.5873 6.8109 37.8899 7.2721C36.2236 8.37382 35.2288 10.2173 35.2288 12.2035C35.2288 14.1896 36.2236 16.0333 37.8899 17.1351C38.6971 17.6687 39.787 17.452 40.3246 16.6522C40.8625 15.8519 40.6445 14.7708 39.8377 14.2374C39.1403 13.7763 38.7402 13.0349 38.7402 12.2035C38.7403 11.3722 39.1403 10.6309 39.8377 10.1698Z" fill="black"/>
</g>
<defs>
<clipPath id="clip0_2_1163">
<rect width="60" height="53" fill="white"/>
</clipPath>
</defs>
</svg>
